<svg xmlns="http://www.w3.org/2000/svg" xmlns:xlink="http://www.w3.org/1999/xlink" width="170.066" height="148.045" viewBox="0 0 170.066 148.045"><defs><style>.a{fill:#d2eded;}.b{filter:url(#a);}</style><filter id="a" x="0" y="0" width="170.066" height="148.045" filterUnits="userSpaceOnUse"><feOffset dy="15" input="SourceAlpha"/><feGaussianBlur stdDeviation="10" result="b"/><feFlood flood-opacity="0.251"/><feComposite operator="in" in2="b"/><feComposite in="SourceGraphic"/></filter></defs><g class="b" transform="matrix(1, 0, 0, 1, 0, 0)"><path class="a" d="M83.928,33.018H57.787v9.631a12.382,12.382,0,1,1-24.765,0V21.736L21.861,28.443a10.983,10.983,0,0,0-5.349,9.424V46L2.754,53.947A5.49,5.49,0,0,0,.742,61.463L14.5,85.3a5.505,5.505,0,0,0,7.515,2.012L39.8,77.044H63.29A11.017,11.017,0,0,0,74.3,66.037h2.752a5.5,5.5,0,0,0,5.5-5.5V49.528h1.376A4.118,4.118,0,0,0,88.055,45.4V37.145A4.118,4.118,0,0,0,83.928,33.018Zm25.4-6.432L95.571,2.749A5.505,5.505,0,0,0,88.055.737L70.273,11H52.7a11.089,11.089,0,0,0-5.83,1.668l-5.761,3.594a5.466,5.466,0,0,0-2.58,4.661V42.648a6.879,6.879,0,1,0,13.758,0V27.514H83.928a9.637,9.637,0,0,1,9.631,9.631v4.9L107.317,34.1a5.509,5.509,0,0,0,2.012-7.515Z" transform="translate(30 15)"/></g></svg>