<svg xmlns="http://www.w3.org/2000/svg" xmlns:xlink="http://www.w3.org/1999/xlink" width="187.97" height="159.514" viewBox="0 0 187.97 159.514"><defs><style>.a{fill:#efeaea;}.b{filter:url(#a);}</style><filter id="a" x="0" y="0" width="187.97" height="159.514" filterUnits="userSpaceOnUse"><feOffset dy="15" input="SourceAlpha"/><feGaussianBlur stdDeviation="10" result="b"/><feFlood flood-opacity="0.251"/><feComposite operator="in" in2="b"/><feComposite in="SourceGraphic"/></filter></defs><g class="b" transform="matrix(1, 0, 0, 1, 0, 0)"><path class="a" d="M62.287,28.07,21.329,61.8V98.213a3.554,3.554,0,0,0,3.554,3.554l24.895-.064a3.554,3.554,0,0,0,3.537-3.554V76.886a3.554,3.554,0,0,1,3.554-3.554H71.087a3.554,3.554,0,0,1,3.554,3.554V98.133A3.554,3.554,0,0,0,78.2,101.7l24.886.069a3.554,3.554,0,0,0,3.554-3.554V61.78L65.686,28.07A2.708,2.708,0,0,0,62.287,28.07ZM126.985,51,108.413,35.69V4.919a2.666,2.666,0,0,0-2.666-2.666H93.307a2.666,2.666,0,0,0-2.666,2.666V21.05L70.752,4.686a10.663,10.663,0,0,0-13.551,0L.966,51a2.666,2.666,0,0,0-.355,3.754L6.276,61.64A2.666,2.666,0,0,0,10.033,62l52.255-43.04a2.708,2.708,0,0,1,3.4,0L117.944,62a2.666,2.666,0,0,0,3.754-.355l5.665-6.887A2.666,2.666,0,0,0,126.985,51Z" transform="translate(30 12.75)"/></g></svg>