<svg xmlns="http://www.w3.org/2000/svg" xmlns:xlink="http://www.w3.org/1999/xlink" width="178" height="168.923" viewBox="0 0 178 168.923"><defs><style>.a{fill:#efeaea;}.b{filter:url(#a);}</style><filter id="a" x="0" y="0" width="178" height="168.923" filterUnits="userSpaceOnUse"><feOffset dy="15" input="SourceAlpha"/><feGaussianBlur stdDeviation="10" result="b"/><feFlood flood-opacity="0.251"/><feComposite operator="in" in2="b"/><feComposite in="SourceGraphic"/></filter></defs><g class="b" transform="matrix(1, 0, 0, 1, 0, 0)"><path class="a" d="M88.925,4.5a34.9,34.9,0,0,0-26.55,12.452A34.9,34.9,0,0,0,35.825,4.5c-18.3,0-32.45,14.239-32.45,32.649,0,22.55,20.054,40.648,50.434,68.559l8.566,7.715,8.566-7.715C101.321,77.8,121.375,59.7,121.375,37.149,121.375,18.739,107.221,4.5,88.925,4.5Zm-26.55,97.01V31.078l6.95-8.254a25.919,25.919,0,0,1,19.6-9.219,23.2,23.2,0,0,1,16.65,6.751A23.642,23.642,0,0,1,112.3,37.177c0,8.226-3.546,16.31-11.46,26.153C92.669,73.428,76.671,88.376,62.375,101.51Z" transform="translate(26.63 10.5)"/></g></svg>